<?xml version="1.0" encoding="utf-8"?>
<svg id="Layer_1" data-name="Layer 1" xmlns="http://www.w3.org/2000/svg" viewBox="0 0 479.88 111.24"><defs><style>.cls-1,.cls-3,.cls-4,.cls-5{fill:#231f20;}.cls-10,.cls-2{fill:#343a74;}.cls-3{stroke:#00adee;}.cls-10,.cls-3,.cls-4,.cls-5{stroke-miterlimit:10;}.cls-4,.cls-5{stroke:#ec1c24;}.cls-10,.cls-4{stroke-width:0.5px;}.cls-6{fill:#fdd173;}.cls-7{fill:#bd002f;}.cls-8{fill:#bfd59b;}.cls-9{fill:#9fc5d3;}.cls-10{stroke:#231f20;}.cls-11{fill:none;}</style></defs><title>Logo Landscape RGB</title><path class="cls-1" d="M209,57.29" transform="translate(-44.46 -61.37)"/><path class="cls-1" d="M209,57.29" transform="translate(-44.46 -61.37)"/><path class="cls-1" d="M209,57.29" transform="translate(-44.46 -61.37)"/><path class="cls-1" d="M209,57.29" transform="translate(-44.46 -61.37)"/><path class="cls-2" d="M97.06,143.85" transform="translate(-44.46 -61.37)"/><path class="cls-1" d="M218.06,91.39" transform="translate(-44.46 -61.37)"/><path class="cls-1" d="M218.06,91.39" transform="translate(-44.46 -61.37)"/><path class="cls-3" d="M220.86,88.5" transform="translate(-44.46 -61.37)"/><path class="cls-4" d="M206.38,88.25" transform="translate(-44.46 -61.37)"/><path class="cls-1" d="M224.51,94.14" transform="translate(-44.46 -61.37)"/><path class="cls-1" d="M224.51,94.14" transform="translate(-44.46 -61.37)"/><path class="cls-3" d="M227.31,91.25" transform="translate(-44.46 -61.37)"/><path class="cls-5" d="M148.49,165.36" transform="translate(-44.46 -61.37)"/><path class="cls-1" d="M152.22,165.93" transform="translate(-44.46 -61.37)"/><path class="cls-6" d="M222.15,96.13,213,120.67s10.34,5.67,19.85,8.17c0,0,1.06-12.35-2.79-22.34C227.84,100.72,222.15,96.13,222.15,96.13Z" transform="translate(-44.46 -61.37)"/><path class="cls-7" d="M211,126.36a104.88,104.88,0,0,0,22.07,9l-3.6,36.54h-35.8Z" transform="translate(-44.46 -61.37)"/><path class="cls-8" d="M223.88,91.87l1.6-4.57A133.37,133.37,0,0,1,240,97.46c7.87,6.41,11.21,13.54,14.41,19S262.23,134,262.23,134a77.92,77.92,0,0,1-12.16-1.51c-4.59-.89-10.37-2.67-10.37-2.67s-.47-12.17-4.22-21.56C231,96.94,223.88,91.87,223.88,91.87Z" transform="translate(-44.46 -61.37)"/><path class="cls-9" d="M226.89,84l2-4.73S244.5,84.9,256.7,94.49c7.72,6.07,23.07,19.36,32.42,39.43,0,0-4.45.67-9,.84-5.53.21-10.59,0-10.59,0A130.31,130.31,0,0,0,254.26,106,69.16,69.16,0,0,0,226.89,84Z" transform="translate(-44.46 -61.37)"/><path class="cls-8" d="M239.71,136.85s4.63,1.16,12,2.43a105.9,105.9,0,0,0,12,1l8,31.63H239.37Z" transform="translate(-44.46 -61.37)"/><path class="cls-9" d="M271,140.54a84.93,84.93,0,0,0,20.76-.81s5.08,9.73,7.24,14.27,7.62,18,7.62,18H280.87S275.5,153.63,271,140.54Z" transform="translate(-44.46 -61.37)"/><path class="cls-4" d="M211.83,91" transform="translate(-44.46 -61.37)"/><path class="cls-1" d="M169.71,170.77" transform="translate(-44.46 -61.37)"/><path class="cls-1" d="M169.71,170.77" transform="translate(-44.46 -61.37)"/><path class="cls-2" d="M148.24,71.47s16.1,31.62,51.31,45.54h0l-1.28,3.23s-30.56-9.4-54.89-48.06h0l4.86-.71" transform="translate(-44.46 -61.37)"/><path class="cls-2" d="M213.83,83.12a196.3,196.3,0,0,0-35,4.75C150.34,94,127.49,104.31,102,123.27,78.06,141,60.44,164.66,55.07,171.49h9s16.19-26.3,48.76-49.51c0,0,21-15.76,52.62-27,0,0,28.75-9.82,47.2-9Z" transform="translate(-44.46 -61.37)"/><path class="cls-2" d="M217.55,75.18c-35.91-11.66-80-7.91-107.22-.63C75,84,44.48,106.2,44.48,106.2l0,9.17s9.22-10.16,35.88-24.5c21.59-11.61,52.3-17.91,69-19.21,16.2-1.26,35.22-.65,46.15,1.1a161.19,161.19,0,0,1,21.07,4.31Z" transform="translate(-44.46 -61.37)"/><path class="cls-2" d="M210.13,92.08a215,215,0,0,0-29.55,15.14c-17.54,10.8-40.76,33.72-49,43.43a204.49,204.49,0,0,0-16.14,20.84H122s11.78-15.52,20.28-25.06c.05-.06,16.67-16.44,16.72-16.49,3-2.63,19.25-16.67,26-21.21,0,0,16.44-10.54,23.59-12.93l1.59-3.72" transform="translate(-44.46 -61.37)"/><polygon class="cls-2" points="178.47 0 184.08 2.13 141.48 110.12 132.28 110.12 178.47 0"/><path class="cls-10" d="M147.44,71.77" transform="translate(-44.46 -61.37)"/><path class="cls-2" d="M85.72,86.05s26.07,57.05,86.42,85.39H161.58s-46.6-21.56-80.74-83Z" transform="translate(-44.46 -61.37)"/><path class="cls-2" d="M275.75,92.61A11.89,11.89,0,0,1,266.88,89a12.37,12.37,0,0,1,8.87-21.18,12.2,12.2,0,0,1,6,1.51,11.08,11.08,0,0,1,4.27,4.1l-4.05,2.35a6.29,6.29,0,0,0-2.51-2.5,8.16,8.16,0,0,0-9.27,1.27,8.54,8.54,0,0,0,0,11.26A7.47,7.47,0,0,0,275.75,88a7.58,7.58,0,0,0,3.69-.9,6.11,6.11,0,0,0,2.5-2.46L286,87a11.1,11.1,0,0,1-4.25,4.1A12.12,12.12,0,0,1,275.75,92.61Z" transform="translate(-44.46 -61.37)"/><path class="cls-2" d="M304.76,90a9.09,9.09,0,1,1,2.61-6.37A8.72,8.72,0,0,1,304.76,90Zm-9.68-3a4.73,4.73,0,0,0,6.58,0,4.69,4.69,0,0,0-3.3-8,4.45,4.45,0,0,0-3.28,1.32,5,5,0,0,0,0,6.73Z" transform="translate(-44.46 -61.37)"/><path class="cls-2" d="M321.86,74.66a7.74,7.74,0,0,1,5.86,2.6,9.58,9.58,0,0,1,0,12.75,7.71,7.71,0,0,1-5.86,2.6,6.57,6.57,0,0,1-5.51-2.48v8.81H312V75.14h4.39v2A6.59,6.59,0,0,1,321.86,74.66Zm-4.18,12.43A4.53,4.53,0,0,0,321,88.43a4.59,4.59,0,0,0,3.38-1.34,5.08,5.08,0,0,0,0-6.9A4.56,4.56,0,0,0,321,78.84a4.5,4.5,0,0,0-3.36,1.35,5.14,5.14,0,0,0,0,6.9Z" transform="translate(-44.46 -61.37)"/><path class="cls-2" d="M338.45,85.44q.89,3.19,4.79,3.2a4.49,4.49,0,0,0,3.81-1.7l3.54,2a8.44,8.44,0,0,1-7.41,3.63,9.14,9.14,0,0,1-6.77-2.55,9,9,0,0,1,6.43-15.4A8.09,8.09,0,0,1,349,77.25a9,9,0,0,1,2.43,6.39,10.69,10.69,0,0,1-.17,1.8Zm-.07-3.4h8.67a4,4,0,0,0-1.55-2.58,4.41,4.41,0,0,0-2.66-.86,4.64,4.64,0,0,0-2.93.91A4.3,4.3,0,0,0,338.38,82Z" transform="translate(-44.46 -61.37)"/><path class="cls-2" d="M365.45,74.66a6.14,6.14,0,0,1,4.6,1.87,7.12,7.12,0,0,1,1.82,5.17V92.14h-4.38v-9.9a3.49,3.49,0,0,0-.92-2.6,3.35,3.35,0,0,0-2.45-.9,3.59,3.59,0,0,0-2.72,1.06,4.37,4.37,0,0,0-1,3.16v9.18H356v-17h4.39V77A5.67,5.67,0,0,1,365.45,74.66Z" transform="translate(-44.46 -61.37)"/><path class="cls-2" d="M386.56,74.66a6.16,6.16,0,0,1,4.61,1.87A7.11,7.11,0,0,1,393,81.7V92.14H388.6v-9.9a3.49,3.49,0,0,0-.92-2.6,3.35,3.35,0,0,0-2.45-.9,3.59,3.59,0,0,0-2.72,1.06,4.37,4.37,0,0,0-1,3.16v9.18h-4.38V68.34h4.38V77A5.69,5.69,0,0,1,386.56,74.66Z" transform="translate(-44.46 -61.37)"/><path class="cls-2" d="M411.14,75.14h4.39v17h-4.39v-2a6.65,6.65,0,0,1-5.54,2.48,7.67,7.67,0,0,1-5.83-2.6,9.58,9.58,0,0,1,0-12.75,7.71,7.71,0,0,1,5.83-2.6,6.68,6.68,0,0,1,5.54,2.48Zm-8.09,12a4.54,4.54,0,0,0,3.37,1.34,4.61,4.61,0,0,0,3.38-1.34,5.11,5.11,0,0,0,0-6.9,4.57,4.57,0,0,0-3.38-1.35,4.51,4.51,0,0,0-3.37,1.35,5.14,5.14,0,0,0,0,6.9Z" transform="translate(-44.46 -61.37)"/><path class="cls-2" d="M434,75.14h4.29V91.32a7.25,7.25,0,0,1-2.6,6,9.79,9.79,0,0,1-6.28,2.07,10.64,10.64,0,0,1-4.84-1,7.4,7.4,0,0,1-3.22-3.09l3.74-2.15a5.39,5.39,0,0,0,7.72,1.29A3.94,3.94,0,0,0,434,91.32V89.49a6.4,6.4,0,0,1-5.44,2.58,8,8,0,0,1-6-2.53,9,9,0,0,1,0-12.33,8,8,0,0,1,6-2.55A6.38,6.38,0,0,1,434,77.25Zm-8.17,11.57a5.11,5.11,0,0,0,6.83,0,4.81,4.81,0,0,0,0-6.66,5.11,5.11,0,0,0-6.83,0,4.78,4.78,0,0,0,0,6.66Z" transform="translate(-44.46 -61.37)"/><path class="cls-2" d="M447.49,85.44c.59,2.13,2.18,3.2,4.79,3.2a4.49,4.49,0,0,0,3.81-1.7l3.53,2a8.42,8.42,0,0,1-7.41,3.63,9.13,9.13,0,0,1-6.76-2.55,9,9,0,0,1,6.42-15.4A8.07,8.07,0,0,1,458,77.25a9,9,0,0,1,2.43,6.39,9.74,9.74,0,0,1-.17,1.8Zm-.07-3.4h8.67a4.09,4.09,0,0,0-1.55-2.58,4.41,4.41,0,0,0-2.67-.86,4.61,4.61,0,0,0-2.92.91A4.3,4.3,0,0,0,447.42,82Z" transform="translate(-44.46 -61.37)"/><path class="cls-2" d="M474.48,74.66a6.14,6.14,0,0,1,4.61,1.87,7.12,7.12,0,0,1,1.82,5.17V92.14h-4.39v-9.9a3.45,3.45,0,0,0-.92-2.6,3.32,3.32,0,0,0-2.44-.9,3.58,3.58,0,0,0-2.72,1.06,4.37,4.37,0,0,0-1,3.16v9.18H465v-17h4.39V77A5.66,5.66,0,0,1,474.48,74.66Z" transform="translate(-44.46 -61.37)"/><path class="cls-2" d="M306.09,108.34h4.69v23.8h-4.69Z" transform="translate(-44.46 -61.37)"/><path class="cls-2" d="M326,114.66a6.16,6.16,0,0,1,4.61,1.87,7.11,7.11,0,0,1,1.81,5.17v10.44H328v-9.9a3.49,3.49,0,0,0-.92-2.6,3.35,3.35,0,0,0-2.45-.9,3.59,3.59,0,0,0-2.72,1.06,4.37,4.37,0,0,0-1,3.16v9.18H316.5v-17h4.38V117A5.69,5.69,0,0,1,326,114.66Z" transform="translate(-44.46 -61.37)"/><path class="cls-2" d="M347.33,119.35h-3.84v7.08a1.69,1.69,0,0,0,.44,1.29,2.1,2.1,0,0,0,1.3.46,18.83,18.83,0,0,0,2.1,0v4c-3,.34-5.14.05-6.37-.85s-1.85-2.53-1.85-4.86v-7.08h-3v-4.21h3V111.7l4.38-1.32v4.76h3.84Z" transform="translate(-44.46 -61.37)"/><path class="cls-2" d="M355.12,125.44q.88,3.19,4.79,3.2a4.49,4.49,0,0,0,3.81-1.7l3.54,2a8.44,8.44,0,0,1-7.41,3.63,9.16,9.16,0,0,1-6.77-2.55,9,9,0,0,1,6.43-15.4,8.09,8.09,0,0,1,6.17,2.59,9,9,0,0,1,2.43,6.39,10.69,10.69,0,0,1-.17,1.8Zm-.07-3.4h8.67a4.08,4.08,0,0,0-1.54-2.58,4.46,4.46,0,0,0-2.67-.86,4.64,4.64,0,0,0-2.93.91A4.3,4.3,0,0,0,355.05,122Z" transform="translate(-44.46 -61.37)"/><path class="cls-2" d="M377.05,118.06a4.61,4.61,0,0,1,2-2.45,6.21,6.21,0,0,1,3.15-.81v4.89a5.19,5.19,0,0,0-3.59.82,3.9,3.9,0,0,0-1.58,3.5v8.13h-4.39v-17h4.39Z" transform="translate(-44.46 -61.37)"/><path class="cls-2" d="M395.72,114.66a6.14,6.14,0,0,1,4.6,1.87,7.08,7.08,0,0,1,1.82,5.17v10.44h-4.38v-9.9a3.49,3.49,0,0,0-.92-2.6,3.35,3.35,0,0,0-2.45-.9,3.59,3.59,0,0,0-2.72,1.06,4.37,4.37,0,0,0-1,3.16v9.18h-4.39v-17h4.39V117A5.67,5.67,0,0,1,395.72,114.66Z" transform="translate(-44.46 -61.37)"/><path class="cls-2" d="M420.3,115.14h4.38v17H420.3v-2a6.66,6.66,0,0,1-5.54,2.48,7.71,7.71,0,0,1-5.84-2.6,9.58,9.58,0,0,1,0-12.75,7.74,7.74,0,0,1,5.84-2.6,6.69,6.69,0,0,1,5.54,2.48Zm-8.09,12a4.53,4.53,0,0,0,3.36,1.34,4.59,4.59,0,0,0,3.38-1.34,5.08,5.08,0,0,0,0-6.9,4.56,4.56,0,0,0-3.38-1.35,4.5,4.5,0,0,0-3.36,1.35,5.14,5.14,0,0,0,0,6.9Z" transform="translate(-44.46 -61.37)"/><path class="cls-2" d="M439.88,119.35H436v7.08a1.69,1.69,0,0,0,.44,1.29,2.1,2.1,0,0,0,1.29.46,19,19,0,0,0,2.11,0v4c-3,.34-5.14.05-6.37-.85s-1.86-2.53-1.86-4.86v-7.08H428.7v-4.21h2.95V111.7l4.39-1.32v4.76h3.84Z" transform="translate(-44.46 -61.37)"/><path class="cls-2" d="M446.65,113.1a2.73,2.73,0,0,1-2.69-2.69,2.64,2.64,0,0,1,.8-1.9,2.53,2.53,0,0,1,1.89-.82,2.56,2.56,0,0,1,1.92.82,2.64,2.64,0,0,1,.8,1.9,2.59,2.59,0,0,1-.8,1.89A2.62,2.62,0,0,1,446.65,113.1Zm-2.18,19v-17h4.39v17Z" transform="translate(-44.46 -61.37)"/><path class="cls-2" d="M468.85,130a9.07,9.07,0,1,1,2.62-6.37A8.71,8.71,0,0,1,468.85,130Zm-9.67-3a4.39,4.39,0,0,0,3.28,1.33,4.48,4.48,0,0,0,3.3-1.33,4.69,4.69,0,0,0-3.3-8,4.42,4.42,0,0,0-3.28,1.32,5,5,0,0,0,0,6.73Z" transform="translate(-44.46 -61.37)"/><path class="cls-2" d="M485.51,114.66a6.16,6.16,0,0,1,4.61,1.87,7.11,7.11,0,0,1,1.81,5.17v10.44h-4.38v-9.9a3.49,3.49,0,0,0-.92-2.6,3.35,3.35,0,0,0-2.45-.9,3.59,3.59,0,0,0-2.72,1.06,4.37,4.37,0,0,0-1,3.16v9.18h-4.38v-17h4.38V117A5.69,5.69,0,0,1,485.51,114.66Z" transform="translate(-44.46 -61.37)"/><path class="cls-2" d="M510.09,115.14h4.39v17h-4.39v-2a6.65,6.65,0,0,1-5.54,2.48,7.67,7.67,0,0,1-5.83-2.6,9.58,9.58,0,0,1,0-12.75,7.71,7.71,0,0,1,5.83-2.6,6.68,6.68,0,0,1,5.54,2.48Zm-8.09,12a4.53,4.53,0,0,0,3.36,1.34,4.63,4.63,0,0,0,3.39-1.34,5.11,5.11,0,0,0,0-6.9,4.6,4.6,0,0,0-3.39-1.35,4.5,4.5,0,0,0-3.36,1.35,5.14,5.14,0,0,0,0,6.9Z" transform="translate(-44.46 -61.37)"/><path class="cls-2" d="M520,132.14V107.32h4.39v24.82Z" transform="translate(-44.46 -61.37)"/><path class="cls-2" d="M342.84,172.61a10.58,10.58,0,0,1-5.95-1.58,8.46,8.46,0,0,1-3.4-4.3l4-2.34A5.35,5.35,0,0,0,343,168a4.69,4.69,0,0,0,2.89-.71,2.24,2.24,0,0,0-.21-3.76,17.13,17.13,0,0,0-4-1.51,28.06,28.06,0,0,1-2.7-.95,11.44,11.44,0,0,1-2.21-1.28,5.13,5.13,0,0,1-1.68-2,6.58,6.58,0,0,1-.58-2.86,6.37,6.37,0,0,1,2.29-5.15,8.33,8.33,0,0,1,5.53-1.92,9.19,9.19,0,0,1,5.08,1.41,9.52,9.52,0,0,1,3.42,3.93l-3.95,2.28a4.75,4.75,0,0,0-4.55-3.06,3.62,3.62,0,0,0-2.3.66,2.1,2.1,0,0,0-.83,1.72,2.16,2.16,0,0,0,.94,1.82,13,13,0,0,0,3.58,1.51c.73.23,1.28.4,1.65.53s.89.31,1.53.57a9.49,9.49,0,0,1,1.5.74,11.2,11.2,0,0,1,1.2.91,4.67,4.67,0,0,1,1,1.19,6.6,6.6,0,0,1,.61,1.48,6.69,6.69,0,0,1,.26,1.89,6.39,6.39,0,0,1-2.4,5.24A9.63,9.63,0,0,1,342.84,172.61Z" transform="translate(-44.46 -61.37)"/><path class="cls-2" d="M364.4,172.61a9,9,0,1,1,0-18,8.85,8.85,0,0,1,4.52,1.19,7.86,7.86,0,0,1,3.09,3.2l-3.77,2.21a3.84,3.84,0,0,0-1.55-1.67,4.45,4.45,0,0,0-2.33-.61,4.4,4.4,0,0,0-3.26,1.31,4.57,4.57,0,0,0-1.29,3.35A4.51,4.51,0,0,0,361.1,167a4.36,4.36,0,0,0,3.26,1.31,4.73,4.73,0,0,0,2.37-.59,3.77,3.77,0,0,0,1.54-1.65l3.81,2.17a8.56,8.56,0,0,1-3.16,3.22A8.76,8.76,0,0,1,364.4,172.61Z" transform="translate(-44.46 -61.37)"/><path class="cls-2" d="M385.34,154.66a6.14,6.14,0,0,1,4.61,1.87,7.12,7.12,0,0,1,1.82,5.17v10.44h-4.39v-9.9a3.45,3.45,0,0,0-.92-2.6,3.32,3.32,0,0,0-2.44-.9,3.58,3.58,0,0,0-2.72,1.06,4.37,4.37,0,0,0-1,3.16v9.18h-4.39v-23.8h4.39V157A5.66,5.66,0,0,1,385.34,154.66Z" transform="translate(-44.46 -61.37)"/><path class="cls-2" d="M411.49,170a9.07,9.07,0,1,1,2.62-6.37A8.71,8.71,0,0,1,411.49,170Zm-9.68-3a4.73,4.73,0,0,0,6.58,0,4.92,4.92,0,0,0,0-6.73,4.76,4.76,0,0,0-6.58,0,5,5,0,0,0,0,6.73Z" transform="translate(-44.46 -61.37)"/><path class="cls-2" d="M433.18,170a9.07,9.07,0,1,1,2.62-6.37A8.71,8.71,0,0,1,433.18,170Zm-9.67-3a4.39,4.39,0,0,0,3.28,1.33,4.48,4.48,0,0,0,3.3-1.33,4.69,4.69,0,0,0-3.3-8.05,4.42,4.42,0,0,0-3.28,1.32,5,5,0,0,0,0,6.73Z" transform="translate(-44.46 -61.37)"/><path class="cls-2" d="M440.39,172.14V147.32h4.38v24.82Z" transform="translate(-44.46 -61.37)"/><path class="cls-11" d="M267.78,130.28" transform="translate(-44.46 -61.37)"/><path class="cls-11" d="M259.61,127.54" transform="translate(-44.46 -61.37)"/></svg>